<?xml version="1.0" encoding="utf-8"?>
<!-- Generator: Adobe Illustrator 27.5.0, SVG Export Plug-In . SVG Version: 6.00 Build 0)  -->
<svg version="1.1" id="Layer_1" xmlns="http://www.w3.org/2000/svg" xmlns:xlink="http://www.w3.org/1999/xlink" x="0px" y="0px"
	 viewBox="0 0 4000 4000" style="enable-background:new 0 0 4000 4000;" xml:space="preserve">
<g>
	<g>
		<g>
			<rect style="fill:#FFFFFF;" width="4000" height="4000"/>
		</g>
	</g>
	<g>
		<g>
			<g>
				<path style="fill:#0BCBFF;" d="M3338.35,2098.036c0,357.55-141.85,682.05-372.35,920.2H1064
					c-230.5-238.15-372.35-562.65-372.35-920.2c0-730.85,592.5-1323.35,1323.35-1323.35S3338.35,1367.186,3338.35,2098.036z"/>
			</g>
		</g>
		<g>
			<g>
				<g>
					<path style="fill:#000072;" d="M3457.5,3104.331c-61.985,9.5-123.97,11.775-185.955,12.942
						c-61.985,1.313-123.97,0.618-185.955-0.098l-92.977-0.576l-92.978-0.034h-185.955h-743.819h-743.819H854.133l-92.977,0.034
						l-46.489,0.439l-46.489,0.762c-30.992,0.396-61.985-0.217-92.977-1.755c-15.496-0.876-30.992-2.092-46.489-4.016
						c-15.496-1.88-30.992-4.106-46.489-7.698c-3.378-0.784-5.482-4.155-4.699-7.534c0.559-2.41,2.443-4.172,4.699-4.7
						c15.496-3.591,30.992-5.818,46.489-7.695c15.496-1.926,30.992-3.142,46.489-4.019c30.992-1.538,61.985-2.151,92.977-1.755
						l46.489,0.762l46.489,0.439l92.977,0.034h371.909h743.819h743.819h185.955l92.978-0.034l92.977-0.576
						c61.985-0.715,123.97-1.411,185.955-0.098c61.985,1.167,123.97,3.442,185.955,12.942c3.378,0.518,5.697,3.677,5.179,7.056
						C3462.26,3101.89,3460.099,3103.931,3457.5,3104.331z"/>
				</g>
			</g>
			<g style="opacity:0.3;">
				<g>
					<ellipse style="fill:#000072;" cx="1982.5" cy="3122.204" rx="1362.5" ry="67.796"/>
				</g>
			</g>
			<g>
				<g>
					<path style="fill:#726789;" d="M3648.84,2100.159c-11.114,77.196-35.628,161.729-76.228,246.403
						c-22.464,46.904-49.804,93.816-82.557,139.56c-41.365,57.958-91.371,114.037-150.854,165.767
						c-12.069,10.497-24.498,20.779-37.33,30.899c-45.373,35.75-112.229,20.427-138.198-31.207
						c-7.975-15.836-10.998-33.149-9.346-49.967c1.895-19.812,10.188-38.927,24.507-54.143
						c30.17-31.973,70.768-83.186,108.58-157.195c24.103-47.135,47.063-103.494,65.434-170.063
						c17.745-64.079,31.259-137.568,37.394-221.382c2.119-27.83,3.364-56.808,3.682-86.979c0,0-1.815-156.722,147.561-140.962
						C3627.833,1779.988,3674.823,1920.048,3648.84,2100.159z"/>
				</g>
			</g>
			<g>
				<g>
					<path style="fill:#504563;" d="M3648.84,2100.159c-11.114,77.196-35.628,161.729-76.228,246.403
						c-40.923-65.729-97.508-105.207-172.254-120.374c-16.717-3.416-32.763-5.179-47.51-5.976
						c17.745-64.079,31.259-137.568,37.394-221.382c13.818,1.36,28.22,3.306,42.972,5.956
						C3515.095,2019.518,3587.628,2051.792,3648.84,2100.159z"/>
				</g>
			</g>
			<g>
				<g>
					<path style="fill:#504563;" d="M3490.055,2486.122c-41.365,57.958-91.371,114.037-150.854,165.767
						c-53.796-43.559-132.351-51-184.874-50.275c1.895-19.812,10.188-38.927,24.507-54.143
						c30.17-31.973,70.768-83.186,108.58-157.195C3367.573,2406.611,3436.14,2439.305,3490.055,2486.122z"/>
				</g>
			</g>
			<g style="opacity:0.3;">
				<g>
					<path style="fill:#000072;" d="M3541.485,1770.889c-13.223-1.395-25.206-1.379-36.166-0.299
						c54.171,47.32,79.334,164.694,58.774,307.219c-11.114,77.196-35.628,161.729-76.228,246.403
						c-22.464,46.904-49.804,93.816-82.557,139.56c-41.365,57.958-91.371,114.037-150.854,165.767
						c-12.069,10.497-24.498,20.779-37.33,30.899c-10.547,8.31-22.26,13.826-34.345,16.802
						c31.815,29.966,82.453,34.417,119.092,5.548c12.832-10.12,25.26-20.402,37.33-30.899
						c59.482-51.73,109.488-107.808,150.854-165.767c32.753-45.744,60.094-92.656,82.557-139.56
						c40.599-84.675,65.114-169.208,76.228-246.403C3674.823,1920.048,3627.833,1779.988,3541.485,1770.889z"/>
				</g>
			</g>
			<g style="opacity:0.6;">
				<g>
					<path style="fill:#FFFFFF;" d="M3212.129,2647.626c-7.975-15.836-10.998-33.149-9.346-49.967
						c1.895-19.812,10.188-38.927,24.507-54.143c30.17-31.973,70.768-83.186,108.58-157.195
						c24.103-47.135,47.063-103.494,65.434-170.063c17.745-64.079,31.259-137.568,37.394-221.382
						c2.119-27.83,3.364-56.808,3.682-86.979c0,0-1.244-113.672,90.724-137.615c-140.822-9.043-139.179,141.569-139.179,141.569
						c-0.318,30.171-1.563,59.149-3.682,86.979c-6.135,83.813-19.648,157.303-37.394,221.382
						c-18.371,66.569-41.331,122.928-65.434,170.063c-37.812,74.009-78.41,125.222-108.58,157.195
						c-14.318,15.216-22.611,34.331-24.507,54.143c-1.652,16.817,1.371,34.13,9.346,49.967
						c21.552,42.851,71.255,60.658,113.477,45.055C3250.263,2691.523,3225.651,2674.511,3212.129,2647.626z"/>
				</g>
			</g>
			<g>
				<g>
					<path style="fill:#000072;" d="M3245.871,2716.441c-7.668,0-15.393-0.835-23.062-2.544
						c-31.265-6.948-57.444-27.334-71.826-55.928c-0.002,0-0.005,0-0.005,0c-19.934-39.629-12.896-87.939,17.52-120.21
						c77.197-81.914,207.29-272.168,211.23-626.069c-0.037-2.861-0.332-78.184,49.417-123.486
						c28.359-25.825,66.687-36.382,113.828-31.426c50.688,5.342,90.173,48.364,111.184,121.147
						c53.279,184.546-18.071,559.731-343.506,816.035C3291.96,2708.683,3269.196,2716.441,3245.871,2716.441z M3176.332,2645.216
						c10.54,20.947,29.727,35.884,52.639,40.976c22.637,5.049,46.006-0.263,64.121-14.526
						c177.502-139.8,262.803-304.903,303.108-418.789c47.126-133.174,58.601-270.4,30.689-367.08
						c-17.595-60.947-48.452-96.743-86.89-100.796c-38.713-4.077-69.526,4.023-91.624,24.077
						c-40.33,36.597-40.273,101.973-40.269,102.627c-4.048,363.848-138.918,560.596-218.955,645.517
						c-22.261,23.623-27.412,58.984-12.817,87.993H3176.332z"/>
				</g>
			</g>
			<g>
				<g>
					<path style="fill:#726789;" d="M3327.25,2890.135c-5.2,156.35-118.7,203.25-118.7,203.25s-316.65,0-645,0h-233
						c-392.15,0-389.5-107.15-389.5-107.15H1665.7c-90.65-60-108.15-145.3-95.85-226.9c2.25-14.85,5.45-29.55,9.35-43.95
						c14.95-54.75,40.3-105.25,61.85-141.8c1.75-3,3.7-5.9,5.85-8.65c18.75-25,49.35-38.5,80.4-35.8c4.65,0.4,9.35,1.2,14,2.35
						c591.8,147.1,895.65-121.85,1014-272.3c0,0,0-0.05,0.05-0.1c4.25-5.4,8.25-10.65,12.05-15.75c23.7-31.9,71.2-34.2,96.75-3.75
						c1.65,2,3.35,3.95,5,5.85c1.4,1.6,2.8,3.15,4.2,4.7c16.6,18.45,34.1,34.55,52.2,49.25c35.45,28.8,73.35,52.5,111.8,78.85
						c18.1,12.4,36.3,25.35,54.45,39.75c38.3,30.3,76.25,66.8,112.05,117.05c11,15.45,21.8,32.2,32.3,50.45
						c15.35,26.6,30.15,56.35,44.2,90.05c2.85,6.8,5.55,13.55,8.1,20.15c13.5,34.9,23,66.95,29.2,96.3
						c3.4,15.85,5.8,30.95,7.4,45.25C3327.15,2856.136,3327.8,2873.736,3327.25,2890.135z"/>
				</g>
			</g>
			<g>
				<g>
					<path style="fill:#FFFFFF;" d="M3327.25,2890.135c-5.2,156.35-118.7,203.25-118.7,203.25s-316.65,0-645,0h-233
						c-392.15,0-389.5-107.15-389.5-107.15H1665.7c-90.65-60-108.15-145.3-95.85-226.9c0,0,177,230.35,348.75,61.85
						c0,0-73.108-61.177-147.377-86.143c-6.793-2.283-6.354-11.995,0.571-13.839c17.346-4.618,34.451-12.885,31.606-27.368
						c-5.2-26.45-107.45-38.1-156.5-128.9c18.75-25,49.35-38.5,80.4-35.8c144.8,38.9,408.85,164.7,408.85,164.7
						s-212.936,123.024-58.65,167.4c91.093,26.2,163.041,16.012,194.379,6.005c11.371-3.631,23.49-4.088,35.153-1.545
						c71.59,15.611,326.718,60.042,436.268-70.76c0,0,331.15,227.95,574.35-2.95c3.4,15.85,5.8,30.95,7.4,45.25
						C3327.15,2856.136,3327.8,2873.736,3327.25,2890.135z"/>
				</g>
			</g>
			<g>
				<g>
					<path style="fill:#504563;" d="M1902.006,2811.091c0,0-61.011-10.773-118.683,5.615c-3.894,1.107-6.329-4.007-3.002-6.313
						c17.86-12.382,50.249-28.978,92.635-25.909L1902.006,2811.091z"/>
				</g>
			</g>
			<g>
				<g>
					<path style="fill:#504563;" d="M1828.479,2763.298c0,0-54.5-9.623-105.143,5.531c-2.843,0.851-4.72-2.99-2.314-4.727
						c14.99-10.826,43.908-26.644,82.28-23.865L1828.479,2763.298z"/>
				</g>
			</g>
			<g>
				<g>
					<path style="fill:#504563;" d="M2020.516,2757.31c0,0,82.602,7.986,138.338,54.509c2.338,1.951,5.673-0.656,4.226-3.336
						c-11.292-20.899-39.622-62.359-94.69-83.079L2020.516,2757.31z"/>
				</g>
			</g>
			<g>
				<g>
					<path style="fill:#504563;" d="M2925.55,2299.385c-2.35,3.4-4.7,6.75-7.15,10.1c-17.25,23.75-35.95,46.4-57.25,66.65
						c-20.9,20.55-44.2,38.8-69.65,53.85c-1.35,0.8-3.1,0.4-3.9-0.95c-0.45-0.8-0.5-1.7-0.2-2.45l0.05-0.15
						c2.65-7,5.6-13.65,8.55-20.25c3-6.55,6.15-12.85,8.9-19.5l17.65-38.2c11.85-25.15,23.1-50.05,34.2-74.7
						c4.25-9.45,8.4-18.9,12.4-28.35C2887,2265.886,2905.9,2283.436,2925.55,2299.385z"/>
				</g>
			</g>
			<g>
				<g>
					<path style="fill:#504563;" d="M3091.8,2417.986c-13.5,17.3-27.95,33.75-43.85,48.85c-20.9,20.5-44.2,38.8-69.65,53.85
						c-1.35,0.8-3.1,0.35-3.9-1c-0.45-0.75-0.5-1.65-0.2-2.45l0.05-0.15c2.65-7,5.6-13.6,8.55-20.2c3-6.55,6.15-12.9,8.9-19.5
						l17.7-38.25c9.6-20.45,18.85-40.75,27.95-60.9C3055.45,2390.635,3073.65,2403.586,3091.8,2417.986z"/>
				</g>
			</g>
			<g>
				<g>
					<path style="fill:#504563;" d="M3236.15,2585.486c-2.6,2.6-5.2,5.2-7.9,7.75c-20.9,20.5-44.15,38.75-69.65,53.85
						c-1.35,0.8-3.1,0.35-3.9-1c-0.45-0.75-0.5-1.65-0.2-2.45l0.05-0.15c2.7-7,5.65-13.6,8.55-20.2c3-6.55,6.2-12.9,8.95-19.5
						l17.65-38.25c4.8-10.2,9.5-20.35,14.15-30.5C3214.85,2550.486,3225.65,2567.236,3236.15,2585.486z"/>
				</g>
			</g>
			<g>
				<g>
					<path style="fill:#504563;" d="M2109.536,2694.632c0,0,82.602,7.986,138.337,54.508c2.338,1.951,5.674-0.656,4.226-3.336
						c-11.292-20.898-39.622-62.359-94.69-83.079L2109.536,2694.632z"/>
				</g>
			</g>
			<g style="opacity:0.3;">
				<g>
					<path style="fill:#000072;" d="M1641.548,2544.821c0,0,1.245,65.654,143.125,129.826c19.172,8.671,16.224,36.666-4.333,41.156
						c-0.605,0.132-1.213,0.266-1.822,0.401c-9.801,2.176-10.277,15.987-0.661,18.87c46.051,13.806,122.144,49.526,169.644,140.062
						c0,0,37.675-130.903,188.659-181.323C2136.159,2693.813,1839.702,2706.607,1641.548,2544.821z"/>
				</g>
			</g>
			<g style="opacity:0.3;">
				<g>
					<path style="fill:#000072;" d="M2889.692,2383.308c-72.439,174.91-357.192,239.728-357.192,239.728
						c-192.85,118.95-428.05,83.25-428.05,83.25c463.25-136.7,609.15-357.2,650.85-447.1c0,0,0-0.05,0.05-0.1
						c4.25-5.4,8.25-10.65,12.05-15.75c23.7-31.9,71.2-34.2,96.75-3.75c1.65,2,3.35,3.95,5,5.85c1.4,1.6,2.8,3.15,4.2,4.7
						c-6.523,44.141,8.328,88.804,16.449,108.963C2892.931,2366.872,2892.899,2375.565,2889.692,2383.308z"/>
				</g>
			</g>
			<g style="opacity:0.3;">
				<g>
					<path style="fill:#000072;" d="M3327.25,2890.135c-5.2,156.35-118.7,203.25-118.7,203.25s-316.65,0-645,0h-233
						c-392.15,0-389.5-107.15-389.5-107.15H1665.7c-90.65-60-108.15-145.3-95.85-226.9c2.25-14.85,5.45-29.55,9.35-43.95l1.85-0.2
						c0,0,25.75,293.55,366.45,189.65c0,0,86.1,60.8,326.9,7.05c9.4-2.1,19-2.5,28.55-1.35c48.6,5.75,212.5,18.1,340.05-56.35
						c24.95-14.55,42.05-39.3,48.6-67.4c17.3-74.3,84.8-230.35,345.9-208.85c-14.15-0.4-240.8-3.45-304.4,251.9
						c0,0,58.65-5.35,161.45,59.95c-3.9-0.8-131.5-27.25-227.3,29.2c-16.8,9.9-17,34.4-0.4,44.65
						c35.45,21.9,101.05,51.3,192.45,46.2c127.55-7.2,437.129-26.8,429.15-314.15c20.75,53.7,32.1,100.65,36.6,141.55
						C3327.15,2856.136,3327.8,2873.736,3327.25,2890.135z"/>
				</g>
			</g>
			<g style="opacity:0.5;">
				<g>
					<path style="fill:#FFFFFF;" d="M2764.431,2886.64c0,0-0.859-237.019,273.069-308.704c0,0-181.53-4.633-257.015,138.626
						c-75.485,143.259-52.427,176.638-52.427,176.638L2764.431,2886.64z"/>
				</g>
			</g>
			<g>
				<g>
					<g>
						<path style="fill:#000072;" d="M1899.633,2969.375c-0.116-0.054-0.394-0.125-0.394-0.125l0.21,0.005
							c0.14,0.02,0.239,0.071,0.495,0.076c0.454,0.005,0.834,0.159,1.347,0.11c0.969,0.088,1.954,0.051,2.956-0.042
							c1.012-0.005,1.94-0.398,2.956-0.464c0.915-0.413,1.892-0.63,2.837-1.023c3.739-1.553,7.317-4.839,10.429-9.485
							c6.391-9.209,10.19-22.932,12.103-36.902c0.401-3.56,1.074-7.031,1.278-10.679l0.595-10.957
							c0.071-1.79,0.273-3.738,0.24-5.403l-0.144-4.912c0.112-3.303-0.693-6.516-0.986-9.797
							c-2.094-13.015-7.625-25.671-15.238-37.427c-15.657-23.389-38.652-43.367-63.886-59.731
							c-25.237-16.619-52.173-31.296-79.778-45.947l-0.035-0.02c-0.586-0.313-0.81-1.04-0.498-1.626
							c0.244-0.459,0.744-0.693,1.23-0.627c15.72,2.222,30.966,6.443,45.889,11.675c7.506,2.527,14.794,5.62,22.119,8.701
							c7.205,3.323,14.421,6.702,21.423,10.549c14.011,7.654,27.62,16.323,40.465,26.394c12.814,10.073,25.048,21.477,35.008,35.33
							c9.956,13.726,18.202,29.644,21.896,47.195c0.672,4.412,1.789,8.789,1.918,13.276l0.451,6.711
							c0.115,2.209-0.012,4.141-0.008,6.228l-0.177,12.307c-0.073,4.106-0.652,8.32-0.969,12.48
							c-1.849,16.626-4.792,34.102-15.141,51.233c-2.327,4.294-5.974,8.313-9.494,12.214c-2.045,1.826-4.142,3.621-6.272,5.366
							c-2.271,1.619-4.773,3.04-7.21,4.478c-2.538,1.287-5.263,2.302-7.937,3.347c-2.781,0.703-5.561,1.594-8.419,1.938
							c-2.849,0.432-5.729,0.667-8.648,0.605c-1.431,0.039-2.974-0.178-4.454-0.291c-0.714-0.051-1.568-0.193-2.384-0.332
							l-1.225-0.237l-1.813-0.444c-9.32-2.559-14.802-12.188-12.243-21.506C1880.683,2972.297,1890.312,2966.816,1899.633,2969.375z
							"/>
					</g>
				</g>
				<g>
					<g>
						<g>
							<path style="fill:#000072;" d="M2056.518,3013.663c-113.918,0-135.037-28.579-138.828-40.864l33.443-10.322
								c-0.61-1.982-1.27-2.847-1.277-2.856c0.149,0.19,15.742,19.043,106.662,19.043c110.449,0,230.784-20.176,231.987-20.381
								c1.489-0.249,3.008-0.307,4.512-0.171c2.759,0.249,277.405,23.413,422.446-113.999l24.072,25.41
								c-151.008,143.057-417.791,126.016-447.4,123.638C2274.569,2996.046,2162.96,3013.663,2056.518,3013.663z"/>
						</g>
					</g>
					<g>
						<g>
							<path style="fill:#000072;" d="M1933.669,2872.598c0.41-2.192,0.807-3.638,1.209-5.332c0.382-1.692,0.874-3.188,1.321-4.771
								c0.866-3.171,1.917-6.196,2.987-9.209c1.003-3.057,2.175-6.013,3.415-8.928c1.255-2.91,2.314-5.938,3.762-8.735
								c2.743-5.691,5.414-11.433,8.653-16.829l4.684-8.208l5.196-7.864c13.949-20.93,31.003-39.551,49.803-56.018
								c9.77-7.744,19.333-15.847,29.918-22.397l7.771-5.178c2.564-1.777,5.192-3.435,7.945-4.858l16.289-8.999
								c5.357-3.184,11.05-5.571,16.683-8.113l16.926-7.585c11.489-4.436,23.16-8.347,34.757-12.522l10.05,33.525
								c-10.74,3.618-21.617,6.956-32.292,10.764l-15.623,6.572c-5.21,2.192-10.508,4.236-15.393,7.019l-14.979,7.8
								c-2.549,1.223-4.954,2.666-7.286,4.221l-7.105,4.5c-9.744,5.662-18.393,12.742-27.365,19.438
								c-17.122,14.314-32.671,30.486-45.428,48.655l-4.768,6.821l-4.274,7.112c-2.991,4.68-5.406,9.631-7.935,14.534
								c-1.349,2.422-2.279,4.99-3.437,7.48c-1.143,2.5-2.217,5.015-3.111,7.566c-0.974,2.539-1.934,5.078-2.68,7.605
								c-0.387,1.255-0.859,2.559-1.145,3.75l-0.866,3.296L1933.669,2872.598z"/>
						</g>
					</g>
					<g>
						<g>
							<path style="fill:#000072;" d="M3038.214,2578.035c-20.739,2.642-40.892,7.002-60.538,12.563
								c-19.625,5.581-38.732,12.378-56.945,20.776c-36.45,16.582-69.738,39.187-95.893,68.379
								c-13.22,14.387-25.077,30.044-34.664,47.107l-3.77,6.277l-3.352,6.538c-2.183,4.382-4.598,8.635-6.604,13.108
								c-3.792,9.067-7.994,17.915-11.031,27.317c-1.618,4.651-3.44,9.219-4.904,13.928l-4.076,14.255l-2.048,7.124l-1.658,7.253
								l-3.35,14.512c-2.071,9.719-3.393,19.641-5.146,29.456l-3.569,29.854l-0.135,1.125c-0.78,6.528-5.199,11.746-10.969,13.879
								l-0.007,0.002c-4.19,1.687-9.342,4.072-13.992,6.345c-4.764,2.327-9.476,4.829-14.151,7.39
								c-9.333,5.171-18.422,10.803-27.195,16.826c-17.577,12.019-33.73,25.862-47.763,41.267
								c-13.882,15.498-25.561,32.69-33.369,51.338c-8.009,18.584-11.817,38.56-12.013,58.738l-0.003,0.286
								c-0.094,9.666-8.004,17.422-17.668,17.329c-9.664-0.093-17.423-7.952-17.329-17.615c0.165-24.712,4.992-49.666,14.779-72.373
								c9.574-22.817,23.562-43.245,39.616-61.147c16.207-17.805,34.435-33.323,53.918-46.66
								c9.737-6.687,19.76-12.893,30.069-18.606c5.169-2.834,10.378-5.598,15.702-8.201c5.445-2.637,10.468-5.017,16.693-7.529
								l0.017-0.007l-11.103,15.005c2.436-42.651,10.504-85.591,26.005-126.34c15.298-40.718,39.181-78.936,70.525-109.631
								c15.672-15.315,33.021-28.833,51.57-40.183c18.574-11.311,38.405-20.295,58.773-27.085
								c20.383-6.799,41.399-11.169,62.488-13.403c10.541-1.14,21.115-1.707,31.666-1.597
								C3017.323,2575.693,3027.869,2576.333,3038.214,2578.035z"/>
						</g>
					</g>
					<g>
						<g>
							<path style="fill:#000072;" d="M2715.711,2879.368c2.718-1.211,4.362-1.807,6.417-2.559c1.985-0.759,3.897-1.272,5.838-1.895
								c3.863-1.116,7.692-2.214,11.522-3.044c3.821-0.952,7.67-1.636,11.502-2.261c3.83-0.73,7.667-1.15,11.503-1.602
								c15.333-1.724,30.635-1.892,45.743-0.984c7.547,0.598,15.065,1.15,22.492,2.397c7.459,0.881,14.795,2.549,22.096,4.072
								c7.302,1.543,14.444,3.811,21.57,5.83c7.058,2.373,14.03,4.929,20.896,7.649c1.517,0.601,2.26,2.317,1.659,3.833
								c-0.463,1.169-1.59,1.88-2.776,1.868l-0.18-0.002c-7.356-0.09-14.555-0.632-21.761-0.833
								c-7.232,0.027-14.344-0.503-21.484-0.291c-14.232-0.107-28.321,0.625-42.212,1.738c-13.876,1.421-27.56,3.389-40.85,6.345
								c-6.627,1.506-13.204,3.12-19.538,5.09c-3.214,0.884-6.301,1.99-9.345,3.059l-4.425,1.694
								c-1.345,0.5-3.073,1.238-3.661,1.514l-0.434,0.205c-8.746,4.114-19.173,0.359-23.287-8.386
								c-4.115-8.748-0.361-19.172,8.386-23.289C2715.465,2879.48,2715.628,2879.407,2715.711,2879.368z"/>
						</g>
					</g>
					<g>
						<g>
							<path style="fill:#000072;" d="M2625.754,3095.518c-0.619-4.419-0.568-7.51-0.416-11.211
								c0.191-3.552,0.588-7.083,1.298-10.605c1.401-7.019,3.507-14.033,7.113-20.662c3.389-6.648,8.201-12.908,14.392-17.49
								c6.379-4.446,13.932-6.802,20.965-5.906c-4.148,5.981-6.588,11.079-7.965,16.187c-1.325,5.149-1.758,10.137-2.122,15.132
								c-0.189,5.044,0.036,10.232,0.389,15.405l0.587,7.759c0.053,1.292,0.264,2.559,0.295,3.828
								c0.104,1.162,0.211,2.686,0.204,3.313L2625.754,3095.518z"/>
						</g>
					</g>
					<g>
						<g>
							<path style="fill:#000072;" d="M2712.654,3097.593c-1.119-2.683-1.464-4.292-1.845-6.389
								c-0.251-1.968-0.408-3.955-0.287-5.928c0.158-3.953,0.955-7.871,1.799-11.738c1.769-7.715,4.615-15.303,8.746-22.163
								c4.096-6.88,10.087-12.646,16.448-16.687c6.353-4.248,13.62-5.974,20.286-6.997l1.541,3.904
								c-4.868,4.285-9.251,8.398-11.792,13.464c-2.739,4.822-4.249,9.802-4.541,14.941c-0.476,5.046-0.054,10.146,1.047,15.168
								c0.502,2.507,1.353,4.988,2.033,7.395c0.296,1.218,0.569,2.395,0.699,3.594c0.09,1.06,0.25,2.605-0.156,3.037
								L2712.654,3097.593z"/>
						</g>
					</g>
					<g>
						<g>
							<path style="fill:#000072;" d="M2079.738,2998.118c-0.976-5.276-1.103-9.253-1.157-13.823
								c0.025-4.434,0.253-8.84,0.898-13.24c1.12-8.792,3.407-17.515,6.803-25.876c3.532-8.345,8.366-16.27,14.539-22.898
								c6.298-6.582,14.173-11.482,22.394-13.708c-4.101,7.678-6.866,14.668-8.619,21.724c-1.543,7.166-2.33,14.106-2.629,21.089
								c-0.256,7.009,0.133,14.031,0.569,21.008l1.764,20.205L2079.738,2998.118z"/>
						</g>
					</g>
					<g>
						<g>
							<path style="fill:#000072;" d="M1998.488,2997.051c-0.967-5.864-1.188-10.569-1.239-15.803
								c-0.082-2.554,0.045-5.107,0.182-7.654c0.09-2.544,0.269-5.09,0.597-7.629c0.506-5.073,1.309-10.146,2.456-15.164
								c0.598-2.515,1.101-5.012,1.785-7.507l2.352-7.4c3.294-9.832,8.115-19.307,14.381-27.686
								c6.621-8.201,14.787-15.229,24.255-18.923c-3.947,9.485-6.654,17.949-8.411,26.555c-1.653,8.65-2.461,17.163-3.116,25.671
								c-0.354,8.584-0.281,17.175,0.058,25.762c0.17,4.287,0.372,8.589,0.657,12.852l0.728,12.258L1998.488,2997.051z"/>
						</g>
					</g>
					<g>
						<g>
							<path style="fill:#000072;" d="M1746.204,2982.869c0.005,0.2,0.131-0.176,0.222-0.388c0.099-0.21,0.195-0.532,0.293-0.825
								l0.611-1.865c0.432-1.272,0.757-2.681,1.129-4.053c0.594-2.813,1.323-5.71,1.767-8.691c0.513-2.976,0.789-6.008,1.049-9.092
								c0.298-3.091,0.451-6.226,0.443-9.395c-0.076-6.316-0.573-12.791-1.559-19.377c-0.831-6.66-2.242-13.367-3.55-20.61
								c5.709,4.47,10.982,9.729,15.209,15.779c4.469,5.952,7.771,12.671,10.773,19.646c3.049,6.99,5.204,14.424,6.582,22.126
								c0.718,3.848,1.26,7.788,1.471,11.794c0.068,2.029,0.177,4.033,0.129,6.143c-0.001,1.033-0.018,2.102-0.115,3.208
								l-0.143,1.699c-0.073,0.627-0.099,1.091-0.288,2.122L1746.204,2982.869z"/>
						</g>
					</g>
					<g>
						<g>
							<path style="fill:#000072;" d="M1840.347,2982.783c0.836-2.419,1.889-5.781,2.735-8.784c0.846-3.096,1.788-6.23,2.59-9.39
								c0.845-3.159,1.562-6.348,2.217-9.551c0.774-3.208,1.394-6.421,1.986-9.675c1.085-6.484,1.71-13.02,2.106-19.705
								c0.265-6.663,0.322-13.45-0.374-20.857c5.453,4.995,9.675,11.467,12.836,18.313c3.105,6.877,5.074,14.128,6.782,21.445
								c1.707,7.324,2.743,14.741,3.305,22.2c0.311,3.733,0.562,7.478,0.536,11.235c0.003,3.855,0.041,7.332-0.413,11.702
								L1840.347,2982.783z"/>
						</g>
					</g>
				</g>
			</g>
			<g>
				<g>
					<path style="fill:#000072;" d="M3208.571,3110.738h-878.035c-252.637,0-348.992-44.424-385.337-81.684
						c-9.187-9.424-14.463-18.237-17.481-25.459h-262.004c-3.406,0-6.736-1.001-9.575-2.881
						c-79.949-52.93-115.459-129.468-105.542-227.49c8.081-79.873,45.508-157.431,75.483-208.432l0,0
						c24.099-40.996,73.193-61.616,119.412-50.117c608.227,151.187,907.532-146.64,1007.988-281.704
						c14.707-19.775,37.256-31.533,61.86-32.261c24.031-0.566,46.69,9.39,62.075,27.715c41.465,49.385,89.67,81.694,140.708,115.898
						c92.91,62.271,198.215,132.847,278.24,324.536c53.606,128.403,62.881,236.86,27.563,322.363
						c-36.079,87.344-105.781,116.983-108.733,118.203C3213.095,3110.294,3210.844,3110.738,3208.571,3110.738z M1958.468,2986.197
						c1.304,6.695,24.839,89.854,372.068,89.854h874.28c24.504-11.855,181.672-101.274,59.536-393.833
						c-76.001-182.046-172.356-246.626-265.54-309.077c-53.14-35.615-103.335-69.258-147.964-122.412
						c-8.521-10.147-21.052-15.669-34.487-15.347c-13.936,0.415-26.709,7.08-35.049,18.291
						c-58.75,78.994-163.838,188.516-330.825,261.65c-203.298,89.028-443.311,100.137-713.364,33.013
						c-31.399-7.802-64.773,6.187-81.135,34.033l0,0c-58.967,100.323-134.729,283.076,15.039,386.538h270.044
						c5,0,9.831,1.226,13.125,4.99C1957.38,2977.535,1958.966,2981.461,1958.468,2986.197z M1958.41,2986.685L1958.41,2986.685
						L1958.41,2986.685z"/>
				</g>
			</g>
			<g>
				<g>
					<path style="fill:#D0CFE5;" d="M1651.8,2994.736h-955l-140.2-310.55l-117.1-259.35c-21.55-47.75,13.4-101.8,65.75-101.8h761.9
						c49.55,0,94.55,29.05,114.9,74.2l190,420.8L1651.8,2994.736z"/>
				</g>
			</g>
			<g style="opacity:0.3;">
				<g>
					<path style="fill:#000072;" d="M1651.8,2994.736h-955l-140.2-310.55c174.829,172.634,594.95,271.35,1015.45,133.85
						L1651.8,2994.736z"/>
				</g>
			</g>
			<g style="opacity:0.5;">
				<g>
					<path style="fill:#FFFFFF;" d="M470.25,2373.036h761.9c49.55,0,94.55,29.05,114.9,74.2l190,420.8l57.183,126.7h57.567
						l-79.75-176.7l-190-420.8c-20.35-45.15-65.35-74.2-114.9-74.2h-761.9c-36.963,0-65.22,26.955-71.07,59.604
						C444.635,2376.584,456.868,2373.036,470.25,2373.036z"/>
				</g>
			</g>
			<g>
				<g>
					<g>
						<path style="fill:#000072;" d="M998.197,2701.171c-50.456-3.72-135.051,111.644,5.921,105.173
							S1064.575,2706.065,998.197,2701.171z"/>
					</g>
				</g>
				<g>
					<g>
						<circle style="fill:#000072;" cx="910.381" cy="2685.299" r="32.034"/>
					</g>
				</g>
				<g>
					<g>
						<circle style="fill:#000072;" cx="1077.929" cy="2680.814" r="32.034"/>
					</g>
				</g>
				<g>
					<g>
						
							<ellipse transform="matrix(0.9239 -0.3827 0.3827 0.9239 -932.9025 578.0687)" style="fill:#000072;" cx="986.623" cy="2634.044" rx="41.004" ry="41.004"/>
					</g>
				</g>
			</g>
			<g>
				<g>
					<path style="fill:#000072;" d="M1651.786,3013.067h-955c-7.214,0-13.757-4.224-16.726-10.801l-257.266-569.898
						c-12.693-28.115-10.281-60.376,6.455-86.289c16.736-25.918,45.146-41.392,75.999-41.392h761.907
						c56.658,0,108.33,33.364,131.641,85.005l269.717,597.476c2.563,5.679,2.07,12.271-1.311,17.505
						C1663.822,3009.908,1658.017,3013.067,1651.786,3013.067z M708.637,2976.368h914.732l-258.025-571.577
						c-17.385-38.516-55.928-63.403-98.188-63.403H505.248c-18.611,0-35.073,8.965-45.168,24.6
						c-10.093,15.63-11.489,34.321-3.833,51.284L708.637,2976.368z"/>
				</g>
			</g>
			<g>
				<g>
					<path style="fill:#D0CFE5;" d="M2261.575,3087.639H703.961c-25.66,0-46.461-20.801-46.461-46.461l0,0
						c0-25.66,20.801-46.461,46.461-46.461h1557.614c25.66,0,46.461,20.801,46.461,46.461l0,0
						C2308.036,3066.838,2287.234,3087.639,2261.575,3087.639z"/>
				</g>
			</g>
			<g style="opacity:0.3;">
				<g>
					<path style="fill:#000072;" d="M2261.575,3047.639H703.961c-18.488,0-34.407-10.826-41.887-26.461
						c-2.901,6.064-4.574,12.829-4.574,20c0,25.66,20.801,46.461,46.461,46.461h1557.614c25.66,0,46.461-20.802,46.461-46.461
						c0-7.171-1.672-13.936-4.574-20C2295.982,3036.813,2280.063,3047.639,2261.575,3047.639z"/>
				</g>
			</g>
			<g>
				<g>
					<path style="fill:#000072;" d="M2261.574,3105.987H703.961c-35.737,0-64.812-29.073-64.812-64.81s29.075-64.81,64.812-64.81
						h1557.612c35.737,0,64.812,29.072,64.812,64.81S2297.311,3105.987,2261.574,3105.987z M703.961,3013.067
						c-15.5,0-28.113,12.613-28.113,28.11c0,15.498,12.612,28.11,28.113,28.11h1557.612c15.5,0,28.113-12.612,28.113-28.11
						c0-15.498-12.612-28.11-28.113-28.11H703.961z"/>
				</g>
			</g>
			<g>
				<g>
					<path style="fill:#000072;" d="M1638.756,3100.558c-46.58-46.968-20.369-98.223,0-118.76l26.14,25.762
						c-5.496,5.684-31.326,35.649-0.081,67.158L1638.756,3100.558z"/>
				</g>
			</g>
			<g>
				<g>
					<g>
						<path style="fill:#726789;" d="M2813.241,1327.8l-207.391,405.81c-23.62-29.079-47.997-54.213-72.535-75.886
							c-157.287-139.18-319.924-138.855-319.924-138.855c96.426-99.939,239.713-179.826,239.713-179.826
							c243.983-125.073,322.734-82.373,348.138-44.267C2812.484,1311.748,2813.241,1327.8,2813.241,1327.8z"/>
					</g>
				</g>
				<g style="opacity:0.3;">
					<g>
						<path style="fill:#000072;" d="M2411.109,1426.151c-34.845,25.922-31.073,78.527,6.524,100.266
							c84.347,48.771,115.628,130.441,115.628,130.441l0.054,0.865c-157.287-139.18-319.924-138.855-319.924-138.855
							c96.426-99.939,239.713-179.826,239.713-179.826c243.983-125.073,322.734-82.373,348.138-44.267
							C2669.897,1257.011,2507.542,1354.411,2411.109,1426.151z"/>
					</g>
				</g>
				<g>
					<g>
						<path style="fill:#000072;" d="M2605.829,1750.616c-5.09,0-9.954-2.29-13.203-6.289
							c-167.18-205.786-377.144-208.462-379.246-208.462c-6.822-0.01-12.993-4.097-15.654-10.376
							c-2.664-6.284-1.328-13.55,3.41-18.457c97.058-100.557,237.766-179.546,243.708-182.861c0.173-0.093,0.347-0.186,0.523-0.278
							c160.486-82.285,274.338-105.171,338.384-68.003c43.904,25.474,46.389,69.258,46.472,71.113
							c0.134,2.949-0.503,5.884-1.846,8.516l-207.395,405.825c-2.617,5.122-7.649,8.574-13.369,9.175
							C2607.018,1750.582,2606.423,1750.616,2605.829,1750.616z M2251.828,1505.035c69.089,9.546,218.63,47.5,350.5,198.027
							l193.335-378.311c-1.624-8.237-7.668-27.363-29.639-39.8c-30.181-17.08-109.91-30.82-304.844,69.077
							C2455.163,1357.418,2341.347,1422.037,2251.828,1505.035z"/>
					</g>
				</g>
			</g>
			<g>
				<g>
					<path style="fill:#FF8DC1;" d="M2783.567,1942.353c-11.513,25.025-24.485,50.483-39.024,76.427l-211.282-361.921
						c0,0,43.456-238.037,215.336-344.462c24.647-15.296,57.24-4.324,68.374,22.485c4.648,11.188,9.621,24.323,14.539,39.241
						c0.054,0.054,0.054,0.054,0.054,0.054C2867.508,1482.763,2901.073,1687.073,2783.567,1942.353z"/>
				</g>
			</g>
			<g style="opacity:0.3;">
				<g>
					<path style="fill:#000072;" d="M2831.51,1374.122c-1.784-2.162-49.456-57.942-109.073,15.296
						c-30.59,37.577-46.68,59.11-55.117,71.231c-3.791,5.445,1.021,12.723,7.528,11.425l29.083-5.803
						c15.35-3.063,30.239,6.727,33.646,22.005c6.511,29.197,11.307,80.993-9.148,150.166c-4.074,13.777-3.068,28.699,3.493,41.48
						c11.951,23.278,26.237,67.931,3.598,125.397c-4.609,11.699-5.01,24.653-1.24,36.648c7.49,23.832,22.825,64.223,49.289,100.387
						c-11.513,25.025-24.485,50.483-39.024,76.427l-211.282-361.921c0,0,43.456-238.037,215.336-344.462
						c24.647-15.296,57.24-4.324,68.374,22.485C2821.619,1346.069,2826.591,1359.204,2831.51,1374.122z"/>
				</g>
			</g>
			<g>
				<g>
					<path style="fill:#000072;" d="M2744.569,2035.811c-6.047,0-11.643-3.213-14.695-8.438l-211.313-361.958
						c-2.048-3.511-2.773-7.637-2.043-11.636c1.831-10.024,46.843-246.724,223.105-355.85c15.867-9.824,35.212-12.153,53.091-6.396
						c18.122,5.84,32.695,19.263,39.98,36.831c40.723,98.188,115.1,362.837-73.284,698.75c-2.986,5.327-8.591,8.643-14.695,8.696
						C2744.667,2035.811,2744.618,2035.811,2744.569,2035.811z M2551.244,1653.897l192.788,330.229
						c162.949-310.269,94.988-551.685,57.229-642.725c-3.455-8.335-10.374-14.702-18.982-17.476
						c-8.479-2.734-17.268-1.694-24.744,2.939C2609.137,1418.741,2559.384,1616.886,2551.244,1653.897z"/>
				</g>
			</g>
			<g>
				<g>
					<g>
						<path style="fill:#726789;" d="M2568.471,1543.29l114.857-22.993c0,0,18.242,85.419-23.454,135.801
							c0,0,97.909,118.718-20.973,181.696l-105.645-180.959C2533.256,1656.835,2548.439,1587.624,2568.471,1543.29z"/>
					</g>
				</g>
				<g>
					<g>
						<path style="fill:#000072;" d="M2638.913,1854.81c-5.864,0-11.552-3.037-14.707-8.438l-105.645-180.957
							c-2.153-3.691-2.839-8.052-1.924-12.227c0.635-2.896,15.798-71.475,36.328-116.904c2.258-5,6.787-8.599,12.166-9.678
							l114.856-22.993c9.138-1.807,18.037,4.023,19.98,13.13c0.764,3.579,17.163,83.149-19.016,139.297
							c14.226,20.786,41.496,68.467,31.799,117.056c-6.638,33.262-28.806,60.088-65.884,79.731
							C2644.33,1854.171,2641.603,1854.81,2638.913,1854.81z M2551.349,1654.083l93.555,160.249
							c19.189-13.232,30.762-29.297,34.475-47.896c7.903-39.595-20.876-85.259-32.634-99.512c-5.19-6.294-5.183-15.386,0.02-21.675
							c25.654-31.001,24.873-79.429,22.295-104.741l-88.501,17.715C2566.53,1592.242,2555.256,1637.525,2551.349,1654.083z"/>
					</g>
				</g>
			</g>
			<g>
				<g>
					<g>
						<path style="fill:#726789;" d="M2039.027,1566.503c0,0-162.578-4.977-323.794,129.654
							c-11.188,9.316-22.332,19.27-33.392,30.032c-13.867,13.399-27.692,27.947-41.261,43.771l-195.714-411.591
							c0,0,0.043-0.553,0.17-1.574c0.638-4.466,3.233-17.568,12.761-31.095c26.501-37.348,106.429-77.758,346.722,54.193
							C1804.519,1379.891,1945.488,1463.86,2039.027,1566.503z"/>
					</g>
				</g>
				<g style="opacity:0.3;">
					<g>
						<path style="fill:#000072;" d="M2039.027,1566.503c0,0-162.578-4.977-323.794,129.654
							c-11.188,9.316-22.332,19.27-33.392,30.032c-5.998-9.231-9.316-19.865-9.316-32.073c0-80.979,75.812-140.78,129.156-172.835
							c23.947-14.39,26.043-48.183,4.028-65.383c-268.367-209.667-360.844-97.529-360.844-97.529s0.043-0.553,0.17-1.574
							c0.638-4.466,3.233-17.568,12.761-31.095c26.501-37.348,106.429-77.758,346.722,54.193
							C1804.519,1379.891,1945.488,1463.86,2039.027,1566.503z"/>
					</g>
				</g>
				<g>
					<g>
						<path style="fill:#000072;" d="M1640.592,1786.959c-0.754,0-1.509-0.054-2.268-0.151c-5.701-0.767-10.63-4.36-13.101-9.561
							l-195.713-411.582c-1.269-2.666-1.821-5.615-1.601-8.565c0.137-1.846,3.87-45.542,48.481-69.756
							c65.078-35.313,178.23-9.199,336.306,77.646c0.173,0.093,0.344,0.19,0.515,0.293c5.845,3.481,144.236,86.46,238.384,189.751
							c4.602,5.049,5.737,12.363,2.883,18.569c-2.856,6.211-9.214,10.073-15.977,9.897c-2.129-0.059-212.017-3.398-385.019,197.544
							C1650.229,1784.825,1645.507,1786.959,1640.592,1786.959z M1462.524,1355.85l182.439,383.667
							c136.121-146.694,286.687-180.361,356.021-187.93c-87.161-85.591-199.006-153.35-204.951-156.924
							c-192.896-105.918-272.893-93.979-303.408-77.407C1470.895,1329.049,1464.369,1347.872,1462.524,1355.85z"/>
					</g>
				</g>
			</g>
			<g>
				<g>
					<path style="fill:#FF8DC1;" d="M1456.964,1973.533c10.793,25.344,23.033,51.162,36.825,77.511l221.536-355.737
						c0,0-36.638-239.182-205.407-350.474c-24.2-15.994-57.093-5.957-68.988,20.522c-4.966,11.051-10.312,24.038-15.655,38.809
						c-0.056,0.052-0.056,0.052-0.056,0.052C1386.189,1511.733,1346.8,1715.001,1456.964,1973.533z"/>
				</g>
			</g>
			<g style="opacity:0.3;">
				<g>
					<path style="fill:#000072;" d="M1425.275,1404.165c1.845-2.11,51.091-56.505,108.592,18.406
						c29.503,38.436,44.972,60.419,53.06,72.776c3.633,5.551-1.385,12.688-7.851,11.205l-28.905-6.632
						c-15.256-3.5-30.418,5.86-34.261,21.034c-7.343,29-13.617,80.636,4.854,150.366c3.679,13.888,2.247,28.775-4.677,41.363
						c-12.611,22.927-32.158,54.721-11.17,112.81c4.273,11.826-5.589,31.779-9.701,43.662
						c-8.168,23.608-16.625,63.174-38.253,104.377c10.793,25.344,23.033,51.162,36.825,77.511l221.536-355.737
						c0,0-36.638-239.182-205.407-350.474c-24.2-15.994-57.093-5.957-68.988,20.522
						C1435.964,1376.407,1430.618,1389.394,1425.275,1404.165z"/>
				</g>
			</g>
			<g>
				<g>
					<path style="fill:#000072;" d="M1493.766,2068.072c-0.212,0-0.422-0.005-0.635-0.014c-6.099-0.225-11.609-3.701-14.441-9.107
						c-178.711-341.162-96.804-603.574-53.293-700.557c7.786-17.354,22.737-30.357,41.018-35.674
						c18.037-5.225,37.31-2.358,52.886,7.915c173.074,114.111,211.306,352.002,212.849,362.07c0.615,4.019-0.227,8.125-2.375,11.572
						l-221.567,355.772C1505.094,2065.05,1499.626,2068.072,1493.766,2068.072z M1484.455,1354.161c-2.827,0-5.693,0.41-8.535,1.235
						c-8.684,2.529-15.781,8.696-19.473,16.924c-40.342,89.927-115.173,329.302,38.843,644.097l202.146-324.585
						c-7.08-37.227-51.152-236.714-196.868-332.788C1495.668,1355.811,1490.136,1354.161,1484.455,1354.161z"/>
				</g>
			</g>
			<g>
				<g>
					<g>
						<path style="fill:#726789;" d="M1683.374,1580.779l-114.153-26.265c0,0-20.675,84.863,19.565,136.416
							c0,0-101.261,115.872,15.773,182.221l110.772-177.867C1715.331,1695.284,1702.131,1625.667,1683.374,1580.779z"/>
					</g>
				</g>
				<g>
					<g>
						<path style="fill:#000072;" d="M1604.545,1890.167c-2.847,0-5.73-0.713-8.377-2.217
							c-36.504-20.693-57.896-48.14-63.581-81.582c-8.306-48.843,20.317-95.728,35.129-116.099
							c-34.558-57.153-15.894-136.23-15.027-139.785c2.205-9.053,11.265-14.624,20.347-12.554l114.155,26.265
							c5.344,1.23,9.768,4.961,11.885,10.024c19.219,45.996,32.419,114.98,32.971,117.896c0.796,4.194-0.015,8.54-2.273,12.163
							l-110.771,177.866C1615.788,1887.306,1610.238,1890.167,1604.545,1890.167z M1582.904,1575.118
							c-3.298,25.22-5.466,73.618,19.294,105.342c5.019,6.431,4.768,15.522-0.601,21.665c-0.417,0.483-43.64,50.952-35.442,98.657
							c3.206,18.652,14.307,34.995,33.071,48.745l98.096-157.515c-3.43-16.665-13.408-62.251-26.457-96.655L1582.904,1575.118z"/>
					</g>
				</g>
			</g>
			<g>
				<g>
					<path style="fill:#726789;" d="M2770.415,2279.344c0,0,21.524,28.883,57.808,51.938c19.312,12.293,23.225,38.879,7.912,55.851
						c-54.661,60.658-175.254,176.232-309.672,187.675c-1.148,0.128-2.339,0.213-3.53,0.298c0,0-479.906,310.395-885.968-32.796
						c0,0-127.697-22.587-209.284-166.704c-5.445-9.656-5.232-20.928-0.468-30.116c2.68-5.317,6.891-9.911,12.421-13.059
						c9.656-5.53,22.12-10.975,37.348-14.335c0,0-34.711-19.482-62.147-78.226c-6.551-14.037-1.829-30.882,11.017-39.517
						c14.165-9.486,31.903-24.417,42.622-44.75c4.764-9.018,8.125-19.142,9.188-30.329c0.766-7.954,2-24.459,5.062-47.302
						c1.149-8.592,2.552-18.036,4.296-28.287c3.19-18.844,7.444-40.326,13.272-63.593
						c32.116-129.143,110.938-314.138,308.779-422.226c4.934-2.722,9.954-5.36,15.016-7.954
						c51.215-26.203,105.365-45.005,160.834-56.319c4.339-0.893,8.72-1.744,13.059-2.552
						c67.209-12.208,136.077-13.527,203.881-3.786c8.125,1.148,16.25,2.51,24.332,3.999c35.731,6.551,71.08,16.249,105.578,29.053
						c10.464,3.871,21.056,8.082,31.69,12.719c37.476,16.121,76.057,36.709,113.958,63.125
						c98.687,68.655,192.907,176.403,252.204,345.191c6.806,19.312,13.102,39.432,18.929,60.361c0,0,0.298,4.764,1.574,12.719
						c0.894,5.7,2.255,13.016,4.339,21.396c7.189,28.755,22.715,69.889,55.979,100.176l0.042,0.042
						c6.848,6.296,14.42,12.038,22.885,17.143c15.654,9.486,22.162,29.138,14.803,45.94
						C2835.412,2234.382,2811.08,2273.218,2770.415,2279.344z"/>
				</g>
			</g>
			<g>
				<g>
					<path style="fill:#FFFFFF;" d="M2554.92,2546.861l-28.458,27.947c-1.148,0.128-2.339,0.213-3.53,0.298
						c0,0-479.906,310.395-885.968-32.796c0,0,46.194-189.614,211.763-232.445c8.383-2.169,16.349-5.676,23.426-10.666
						c29.245-20.62,123.911-72.126,266.043-1.408c10.849,5.398,22.805,8.101,34.912,7.596
						C2237.964,2302.683,2461.234,2311.325,2554.92,2546.861z"/>
				</g>
			</g>
			<g style="opacity:0.3;">
				<g>
					<path style="fill:#000072;" d="M1956.216,2293.01c0,0-2.507,98.472-111.888,50.147c0,0-22.612,37.382,29.484,74.286
						c0,0,116.358,128.967,251.262,16.851c0,0,56.514-29.624,50.589-87.961c0,0-23.947,5.202-73.81,8.361
						c-32.797,2.078-63.617-15.88-78.083-45.387c-4.332-8.836-8.74-19.33-13.091-31.793L1956.216,2293.01z"/>
				</g>
			</g>
			<g>
				<g>
					<path style="fill:#FFFFFF;" d="M1830.03,2004.641c5.048,19.754-18.282,34.145-33.957,21.106
						c-12.572-10.457-28.08-19.888-46.37-24.746C1702.37,1988.428,1804.842,1906.083,1830.03,2004.641z"/>
				</g>
			</g>
			<g>
				<g>
					<path style="fill:#FFFFFF;" d="M2223.709,2010.008c-5.686,16.043,12.792,29.558,26.679,19.716
						c19.387-13.741,45.933-25.59,80.566-26.916C2408.671,1999.831,2278.478,1855.471,2223.709,2010.008z"/>
				</g>
			</g>
			<g>
				<g>
					<g>
						<path style="fill:#504563;" d="M2201.86,1493.254c-1.233,1.404-2.467,2.765-3.785,4.296c-2.042,2.807-4.254,5.445-6.636,7.954
							c-8.976,11.57-19.78,23.651-30.202,38.496c-2.637,3.658-5.402,7.274-8.252,10.932c-1.531,1.701-2.765,3.743-4.041,5.785
							l-3.828,6.125c-5.019,8.252-10.805,16.079-15.186,25.31c-4.679,8.975-9.614,17.951-14.292,27.266l-12.719,29.181l-3.275,7.402
							c-1.191,2.467-2.169,4.977-3.02,7.572l-5.573,15.441l-11.442,31.393c-3.105,10.762-6.381,21.609-9.698,32.541l-5.062,16.42
							l-2.552,8.295l-2.084,8.38l-8.55,33.902l-4.594,17.1l-2.297,8.635l-1.829,8.635c-1.744,8.252-3.531,16.505-5.36,24.799
							c-3.063,13.569-22.077,14.548-26.458,1.361c-2.765-8.252-5.445-16.547-8.04-24.885c-7.019-23.438-12.293-47.344-17.823-71.463
							l-1.999-9.103l-1.489-9.145l-2.765-18.419c-1.872-12.293-3.658-24.714-5.275-37.178c-1.063-12.549-1.829-25.225-2.552-37.943
							c-0.638-12.719-1.744-25.565-0.936-38.539l1.234-39.262c1.234-13.229,3.02-26.543,4.679-39.985l1.276-10.124
							c0.426-3.361,1.361-6.721,1.999-10.124l3.403-15.271l1.106-5.104l0.978-4.339c4.339-0.893,8.72-1.744,13.059-2.552
							C2065.188,1484.831,2134.056,1483.512,2201.86,1493.254z"/>
					</g>
				</g>
				<g>
					<g>
						<path style="fill:#504563;" d="M1982.835,1509.035c-2.084,1.149-4.254,2.255-6.466,3.233c1.021-0.255,1.999-0.596,2.978-0.978
							l0.34,0.255c0.213,0.17,0.425,0.213,0.553,0.34c-0.255,0.681-0.468,1.319-0.808,1.829l-0.681,1.063l-0.808,1.148
							c-0.298,0.34-0.553,0.723-0.851,1.063c-0.298,0.298-0.638,0.681-0.979,1.191c-1.276,1.914-2.765,3.36-4.296,5.189
							c-1.532,2.042-3.148,3.956-4.892,5.785c-6.508,8.465-14.42,17.27-21.992,28.117c-1.957,2.637-3.956,5.317-6.04,7.954
							c-1.106,1.276-2.042,2.765-2.935,4.254l-2.807,4.424c-3.658,6.041-7.869,11.74-11.102,18.504
							c-3.403,6.551-7.019,13.101-10.422,19.907l-9.316,21.311l-2.34,5.402c-0.893,1.787-1.574,3.616-2.212,5.487l-4.083,11.315
							l-8.337,22.885c-2.255,7.869-4.679,15.781-7.104,23.736l-3.658,11.996l-1.914,6.083l-1.489,6.125l-6.253,24.714l-3.318,12.506
							l-1.701,6.253l-1.319,6.338c-1.276,5.998-2.595,12.038-3.956,18.078c-2.212,9.911-16.079,10.634-19.269,1.021
							c-1.999-6.041-3.956-12.123-5.913-18.206c-5.104-17.057-8.933-34.498-12.974-52.151l-1.446-6.593l-1.106-6.721l-2.042-13.399
							c-1.319-9.018-2.637-18.078-3.828-27.182c-0.766-9.146-1.319-18.376-1.829-27.692c-0.468-9.273-1.276-18.631-0.723-28.117
							l0.893-28.67c0.723-7.572,1.701-15.271,2.68-22.97c4.934-2.722,9.954-5.36,15.016-7.954
							c51.215-26.203,105.365-45.005,160.834-56.319c4.339-0.893,8.72-1.744,13.059-2.552
							C1993.64,1501.676,1988.536,1505.717,1982.835,1509.035z"/>
					</g>
				</g>
				<g>
					<g>
						<path style="fill:#504563;" d="M2363.459,1539.024c-5.572,4.722-11.527,9.826-17.483,15.696
							c-2.382,2.297-4.849,4.551-7.402,6.764c-1.319,1.063-2.467,2.339-3.658,3.658l-3.531,3.871
							c-4.679,5.275-9.869,10.124-14.25,16.164c-4.509,5.828-9.273,11.655-13.825,17.695l-12.974,19.312l-3.318,4.892
							c-1.149,1.574-2.212,3.275-3.19,5.019l-5.998,10.379l-12.336,21.013c-3.658,7.317-7.444,14.676-11.272,22.077l-5.742,11.145
							l-2.935,5.615l-2.595,5.743l-10.592,23.225l-5.53,11.655l-2.807,5.913l-2.425,5.955c-2.34,5.7-4.722,11.4-7.146,17.1
							c-3.956,9.315-17.738,7.529-19.142-2.51c-0.894-6.295-1.744-12.591-2.51-18.929c-1.957-17.696-2.595-35.561-3.403-53.64
							l-0.255-6.763l0.128-6.763l0.425-13.612c0.298-9.06,0.638-18.206,1.106-27.394c0.894-9.146,1.999-18.334,3.148-27.564
							c1.234-9.231,2.127-18.589,4.382-27.82l6.04-28.032c2.637-9.273,5.7-18.631,8.635-28.075l2.212-7.061
							c0.766-2.382,1.872-4.679,2.808-7.019l5.87-14.037l2.297-5.445c35.731,6.551,71.08,16.249,105.578,29.053
							C2342.233,1530.176,2352.825,1534.387,2363.459,1539.024z"/>
					</g>
				</g>
				<g>
					<g>
						<path style="fill:#504563;" d="M2810.442,2141.991l-17.611-6.168c-9.358-3.19-18.844-6.338-28.415-9.443
							c-19.142-6.21-38.751-11.783-58.701-16.675c-9.996-2.722-20.12-4.466-30.372-6.934c-10.209-1.786-20.631-4.296-31.137-5.955
							c-21.226-4.424-42.792-6.806-66.358-11.443c4.764-3.488,9.741-6.593,14.803-9.741c5.104-2.978,10.251-6.083,15.611-8.38
							c5.317-2.467,10.719-4.849,16.207-7.146c5.53-2.169,11.102-3.828,16.76-5.7l8.508-2.595c2.85-0.808,5.7-1.361,8.593-2.084
							c5.743-1.319,11.528-2.467,17.355-3.701c11.655-1.574,23.481-3.36,35.263-3.913c14.463-0.978,29.01-1.063,43.516-0.298
							C2761.652,2070.57,2777.178,2111.704,2810.442,2141.991z"/>
					</g>
				</g>
				<g>
					<g>
						<path style="fill:#504563;" d="M2750.124,2020.419c-7.274-2.042-14.633-3.913-22.034-5.743
							c-9.996-2.722-20.078-4.466-30.329-6.891c-10.209-1.786-20.631-4.339-31.137-5.998c-21.226-4.381-42.792-6.764-66.401-11.443
							c4.807-3.488,9.783-6.593,14.845-9.741c5.062-2.978,10.209-6.083,15.569-8.38c5.359-2.467,10.762-4.849,16.249-7.104
							c5.487-2.212,11.102-3.871,16.717-5.7l8.508-2.637c2.85-0.808,5.742-1.361,8.592-2.084c5.743-1.319,11.57-2.467,17.398-3.658
							c10.379-1.446,20.928-2.978,31.52-3.701c6.806,19.312,13.102,39.432,18.929,60.361
							C2748.55,2007.7,2748.848,2012.464,2750.124,2020.419z"/>
					</g>
				</g>
				<g>
					<g>
						<path style="fill:#504563;" d="M1631.222,2121.913c-23.566,4.637-45.132,7.019-66.358,11.443
							c-10.507,1.659-20.928,4.169-31.137,5.955c-10.251,2.467-20.375,4.211-30.371,6.934c-11.783,2.893-23.396,5.998-34.881,9.358
							c4.764-9.018,8.125-19.142,9.188-30.329c0.766-7.954,2-24.459,5.062-47.302c5.147,0.085,10.294,0.341,15.399,0.681
							c11.783,0.553,23.608,2.297,35.264,3.913c5.828,1.233,11.613,2.34,17.355,3.701c2.893,0.681,5.743,1.233,8.593,2.084
							l8.507,2.595c5.658,1.829,11.23,3.531,16.717,5.7c5.53,2.255,10.932,4.637,16.249,7.146c5.36,2.255,10.507,5.402,15.611,8.38
							C1621.481,2115.277,1626.458,2118.425,1631.222,2121.913z"/>
					</g>
				</g>
				<g>
					<g>
						<path style="fill:#504563;" d="M1608.847,2026.884c-23.608,4.679-45.175,7.019-66.401,11.443
							c-10.507,1.659-20.929,4.212-31.137,5.955c-8.21,1.957-16.292,3.488-24.289,5.402c3.19-18.844,7.444-40.326,13.272-63.593
							c3.573,0.468,7.146,0.978,10.677,1.489c5.828,1.191,11.655,2.34,17.398,3.658c2.85,0.723,5.743,1.276,8.592,2.084l8.508,2.595
							c5.615,1.872,11.23,3.531,16.717,5.7c5.488,2.297,10.89,4.679,16.207,7.146c5.36,2.297,10.549,5.402,15.611,8.38
							C1599.064,2020.291,1604.04,2023.396,1608.847,2026.884z"/>
					</g>
				</g>
			</g>
			<g style="opacity:0.3;">
				<g>
					<path style="fill:#000072;" d="M2777.568,2277.895c-3.265,0.835-4.597,4.72-2.409,7.282
						c8.213,9.615,26.76,29.391,53.063,46.105c19.312,12.293,23.225,38.879,7.912,55.851
						c-54.661,60.658-175.254,176.232-309.672,187.675c-1.148,0.128-2.339,0.213-3.53,0.298c0,0-479.207,309.943-885.08-32.047
						c-0.564-0.475-1.239-0.811-1.961-0.959c-12.477-2.559-130.995-30.098-208.211-166.494c-3.868-6.86-4.881-14.536-3.435-21.701
						c0.754-3.734,5.668-4.707,7.993-1.689c21.135,27.426,59.609,67.12,118.973,92.531c3.249,1.391,6.805-1.217,6.319-4.718
						c-1.041-7.499-1.93-20.03-0.021-36.38c0.462-3.958,5.379-5.512,7.949-2.467c35.397,41.941,216.566,235.252,530.483,210.847
						c351.826-27.352,797.788-574.722,413.463-974.403c-0.123-0.128-0.246-0.256-0.368-0.384c-3.934-4.102,1.767-10.204,6.174-6.614
						c84.553,68.904,162.74,169.634,214.41,316.712c6.757,19.173,13.011,39.143,18.804,59.91c0.082,0.294,0.133,0.573,0.156,0.878
						c0.103,1.334,0.49,5.726,1.543,12.291c0.894,5.7,2.255,13.016,4.339,21.396c7.189,28.755,22.715,69.889,55.979,100.176
						l0.042,0.042c6.848,6.296,14.42,12.038,22.885,17.143c15.654,9.486,22.162,29.138,14.803,45.94
						C2836.178,2232.624,2813.962,2268.587,2777.568,2277.895z"/>
				</g>
			</g>
			<g style="opacity:0.5;">
				<g>
					<path style="fill:#FFFFFF;" d="M2363.459,1539.024c-10.634-4.637-21.226-8.848-31.69-12.719
						c-34.498-12.804-69.846-22.502-105.578-29.053c-8.082-1.489-16.207-2.85-24.332-3.999
						c-67.804-9.741-136.672-8.422-203.881,3.786c-4.339,0.808-8.72,1.659-13.059,2.552
						c-55.469,11.315-109.619,30.117-160.834,56.319c-5.062,2.595-10.081,5.232-15.016,7.954
						c-197.841,108.088-276.663,293.083-308.779,422.226c-5.828,23.268-10.081,44.749-13.272,63.593
						c-1.744,10.251-3.148,19.695-4.296,28.287c-3.063,22.843-4.296,39.347-5.062,47.302c-1.063,11.188-4.424,21.311-9.188,30.329
						c-10.719,20.333-28.458,35.264-42.622,44.75c-12.846,8.635-17.568,25.48-11.017,39.517
						c27.436,58.744,62.147,78.226,62.147,78.226s7.614,2.382-19.823-56.362c-6.551-14.037-10.124-22.97,2.722-31.605
						c14.165-9.486,31.903-24.416,42.622-44.749c4.764-9.018,8.125-19.142,9.188-30.329c0.766-7.954,1.999-24.459,5.062-47.302
						c1.149-8.592,2.552-18.036,4.297-28.287c3.19-18.844,7.444-40.325,13.272-63.593c9.123-36.686,22.02-77.879,40.34-120.536
						c5.587-13.008,17.592-21.733,31.511-24.317c27.319-5.071,67.738-36.757,102.592-83.086
						c32.819-43.625,51.788-88.384,51.635-116.548c-0.078-14.436,6.185-28.175,17.854-36.674
						c20.051-14.606,41.615-28.373,64.846-41.065c4.934-2.723,9.954-5.36,15.016-7.954c51.215-26.203,105.365-45.005,160.834-56.319
						c4.339-0.893,8.72-1.744,13.059-2.552c67.209-12.208,136.077-13.527,203.882-3.786c8.125,1.148,16.249,2.51,24.332,3.999
						c35.731,6.551,71.08,16.249,105.578,29.053c10.464,3.871,21.056,8.082,31.69,12.719
						c49.726,21.354,101.366,50.704,150.837,90.902C2488.86,1603.808,2424.756,1565.354,2363.459,1539.024z"/>
				</g>
			</g>
			<g>
				<g>
					<path style="fill:#000072;" d="M2075.263,2720.577c-136.619,0-296.082-37.227-445.984-162.495
						c-24.949-5.718-139.749-38.701-216.384-174.106c-13.162-23.257-4.949-53.003,18.303-66.308
						c3.796-2.168,7.695-4.175,11.685-6.006c-13.162-13.535-29.329-34.326-43.464-64.59c-10.037-21.484-2.742-47.642,16.965-60.84
						c18.728-12.549,41.624-33.584,44.346-62.529l0.413-4.556c2.986-33.525,12.068-135.542,60.139-251.504
						c61.448-148.232,160.715-258.218,295.042-326.904c161.296-82.471,351.335-93.545,521.394-30.381
						c147.639,54.844,341.606,184.858,427.229,492.788c0.313,1.133,0.51,2.29,0.586,3.462c0.063,0.923,7.332,96.03,76.641,138.018
						c22.99,13.926,32.28,42.866,21.611,67.319c-11.88,27.217-31.831,59.507-63.281,75.415c9.06,8.941,21.58,19.858,36.855,29.58
						c13.54,8.618,22.544,22.642,24.702,38.486c2.131,15.659-2.71,31.377-13.284,43.11
						c-60.627,67.295-182.341,181.187-320.308,193.218c-21.995,13.594-135.54,80.366-292.847,112.329
						C2188.068,2713.746,2133.747,2720.577,2075.263,2720.577z M2111.686,1503.853c-96.443,0-192.598,22.559-279.87,67.188
						c-262.271,134.102-323.577,402.856-336.777,551.123l-0.427,4.727c-3.974,42.246-34.434,70.962-59.287,87.612
						c-5.889,3.945-8.069,11.753-5.076,18.164c24.412,52.26,54.876,70.459,55.181,70.639c6.05,3.525,9.385,10.435,8.306,17.354
						c-1.077,6.919-6.221,12.51-13.057,14.028c-11.611,2.578-22.573,6.792-32.581,12.515c-7.043,4.033-9.551,13.013-5.586,20.015
						c76.316,134.839,196.252,158.125,197.453,158.345c2.925,0.537,5.706,1.836,7.974,3.75
						c124.258,105.014,266.426,157.808,424.089,157.817c50.352,0,102.258-5.381,155.703-16.167
						c165.886-33.482,284.805-109.37,285.986-110.132c2.402-1.552,5.166-2.476,8.018-2.68
						c127.832-9.155,243.93-118.203,301.758-182.388c3.916-4.351,5.637-9.941,4.848-15.747c-0.806-5.898-4.177-11.138-9.253-14.365
						c-38.469-24.483-61.348-54.863-62.305-56.143c-3.574-4.795-4.368-11.114-2.092-16.646c2.275-5.528,7.288-9.458,13.201-10.352
						c32.461-4.888,53.101-37.598,64.7-64.18c3.882-8.892,0.42-19.468-8.052-24.604c-79.651-48.247-91.45-147.573-92.82-163.032
						c-81.992-292.979-265.891-416.445-405.854-468.433C2256.742,1516.583,2184.132,1503.853,2111.686,1503.853z"/>
				</g>
			</g>
			<g>
				<g>
					<path style="fill:#000072;" d="M1624.378,2553.765c-4.393-5.706-8.091-11.35-11.629-17.39
						c-3.55-5.959-6.764-12.168-9.776-18.491c-2.946-6.362-5.715-12.849-7.844-19.658c-2.126-6.755-4.046-13.735-4.201-20.862
						c1.206,1.331,2.358,2.627,3.44,3.906l3.599,3.638c2.388,2.393,4.74,4.722,7.277,6.941c4.962,4.47,9.886,8.877,14.939,13.169
						l14.942,12.913c4.948,4.229,9.892,8.73,14.415,12.925L1624.378,2553.765z"/>
				</g>
			</g>
			<g>
				<g>
					<path style="fill:#000072;" d="M2512.093,2562.024l33.792-27.712c11.306-9.346,22.549-18.796,33.738-28.345
						c11.153-9.59,22.157-19.343,33.073-29.275c11.031-9.846,22.068-19.656,34.677-28.723c-5.484,14.49-13.371,27.593-22.107,39.924
						c-8.948,12.151-18.255,24.082-28.091,35.515c-9.779,11.492-19.926,22.661-30.431,33.479
						c-5.245,5.42-10.589,10.74-16.085,15.913c-5.487,5.242-10.888,10.339-16.849,15.425L2512.093,2562.024z"/>
				</g>
			</g>
			<g>
				<g>
					<path style="fill:#000072;" d="M2759.001,2291.946c-2.986-2.942-5.523-6.274-7.993-9.724
						c-2.425-3.486-4.735-7.097-6.852-10.913c-2.159-3.77-4.18-7.693-5.877-11.938c-1.679-4.243-3.12-8.848-3.744-13.928
						c4.996,0.93,9.491,2.031,13.735,3.501c4.251,1.44,8.224,3.157,12.08,5.002c3.905,1.794,7.635,3.772,11.268,5.854
						c3.589,2.122,7.126,4.341,10.233,6.929L2759.001,2291.946z"/>
				</g>
			</g>
			<g>
				<g>
					<path style="fill:#000072;" d="M2128.058,2426.268c-8.167,39.092-33.732,92.094-111.703,100.984
						c-39.134,4.467-67.719-7.486-88.52-26.118c-46.068-41.261-54.022-115.106-54.022-115.106
						c104.642,39.049,114.978-79.332,114.978-79.332c11.868,126.591,142.755,76.865,142.755,76.865
						S2133.077,2402.277,2128.058,2426.268z"/>
				</g>
			</g>
			<g>
				<g>
					<path style="fill:#FF459A;" d="M2128.058,2426.268c-8.167,39.092-33.732,92.094-111.703,100.984
						c-39.134,4.467-67.719-7.486-88.52-26.118C1952.208,2462.169,2015.121,2388.665,2128.058,2426.268z"/>
				</g>
			</g>
			<g>
				<g>
					<path style="fill:#000072;" d="M2000.263,2545.23c-29.761,0-56.025-8.975-78.284-26.782
						c-55.195-44.165-64.724-127.07-65.103-130.576c-0.632-5.864,1.816-11.641,6.475-15.259c4.658-3.618,10.862-4.561,16.389-2.51
						c24.456,9.126,44.338,9.057,59.082-0.2c28.386-17.827,32.991-64.273,33.035-64.741c0.808-8.75,8.147-15.464,16.934-15.469
						c0.005,0,0.007,0,0.01,0c8.782,0,16.125,6.66,16.943,15.405c2.778,29.678,12.996,50.21,30.369,61.035
						c34.404,21.45,88.852,1.729,89.394,1.518c4.995-1.894,10.598-1.338,15.122,1.519c4.521,2.856,7.439,7.666,7.876,12.998
						c4.138,50.42-17.747,149.17-130.198,162.007C2012.16,2544.879,2006.142,2545.23,2000.263,2545.23z M1895.832,2409.581
						c6.399,24.321,20.039,60.464,47.52,82.383c19.568,15.611,42.822,21.626,71.096,18.404
						c79.595-9.087,96.418-70.899,99.643-104.297c-24.683,5.229-64.185,8.76-95.974-11.055
						c-12.312-7.671-22.249-17.949-29.771-30.767c-7.166,12.944-17.212,25.493-31.253,34.365
						C1939.601,2409.659,1919.086,2413.326,1895.832,2409.581z"/>
				</g>
			</g>
			<g>
				<g>
					<path style="fill:#000072;" d="M2004.442,2293.56l0.711,6.721c0.298,2.415,0.702,4.841,1.09,7.261
						c0.792,4.841,1.902,9.607,3.188,14.236c2.438,9.316,6.192,17.893,10.663,25.376c9.271,14.829,22.511,24.109,40.409,26.892
						c2.2,0.393,4.43,0.747,6.761,0.864l3.461,0.303l3.823,0.066c5.09,0.049,10.265,0.386,15.25-0.081l7.572-0.347l7.4-0.935
						l3.719-0.454l3.596-0.762c2.383-0.54,4.863-0.889,7.212-1.519c9.579-2.271,18.078-6.46,26.899-10.374
						c2.288-0.923,4.302-2.163,6.69-3.115c2.117-1.194,4.57-2.192,6.814-3.455c4.689-2.4,9.543-5.037,14.848-8.347l0.195-0.12
						c0.625-0.391,1.448-0.2,1.838,0.425c0.112,0.181,0.177,0.381,0.196,0.579c0.652,6.838-1.097,13.362-3.864,19.231
						c-1.323,3.03-3.109,5.703-4.941,8.43c-1.975,2.515-3.988,5.181-6.34,7.361c-9.229,9.194-21.04,14.868-32.705,19.382
						c-2.939,1.125-5.924,1.968-8.909,2.927l-4.493,1.362l-4.518,1.003l-9.073,1.975l-9.081,1.243
						c-6.096,0.964-12.098,1.06-18.153,1.421l-4.539,0.229l-4.892-0.125c-3.253-0.017-6.559-0.317-9.882-0.718
						c-13.267-1.34-26.925-5.933-38.987-13.518c-12.138-7.529-21.903-18.379-28.886-29.976
						c-7.072-11.621-11.378-24.124-14.135-36.482c-1.343-6.211-2.195-12.441-2.753-18.669c-0.3-3.115-0.394-6.245-0.452-9.395
						c-0.05-3.267-0.022-6.042,0.255-9.998c0.657-9.355,8.775-16.409,18.132-15.752c8.346,0.586,14.859,7.107,15.703,15.149
						L2004.442,2293.56z"/>
				</g>
			</g>
			<g>
				<g>
					<path style="fill:#000072;" d="M2004.485,2297.275c0.349,3.481,0.432,5.801,0.477,8.608c0.041,2.69,0.025,5.354-0.139,8.015
						c-0.311,5.317-0.854,10.637-1.815,15.952c-1.982,10.588-5.208,21.323-10.715,31.465c-5.396,10.134-13.068,19.778-22.87,26.924
						c-9.656,7.31-21.028,11.951-32.185,14.099c-5.593,1.108-11.132,1.606-16.591,1.821c-5.259-0.02-10.375-0.142-15.562-0.332
						c-10.495-1.274-21.121-2.573-31.57-7.131c-2.611-0.842-5.148-2.361-7.675-3.65c-1.256-0.688-2.527-1.299-3.749-2.063
						l-3.577-2.534c-1.165-0.881-2.341-1.721-3.464-2.646c-1.088-1.003-2.092-2.107-3.118-3.159
						c-2.137-2.002-3.787-4.517-5.394-6.963c-1.677-2.383-2.676-5.247-3.82-7.839c-0.795-2.815-1.65-5.513-1.852-8.367
						c-0.576-5.608,0.015-11.25,2.549-16.318c0.25-0.498,0.858-0.701,1.357-0.452c0.155,0.078,0.281,0.19,0.374,0.322l0.091,0.129
						c2.994,4.282,5.899,7.854,8.907,10.869c1.351,1.577,3.05,2.844,4.38,4.189l2.285,1.772c0.674,0.625,1.403,1.189,2.23,1.653
						c5.974,4.099,12.085,7.378,19.426,9.263c7.175,2.051,15.465,2.192,23.561,2.231l12.495-0.867
						c3.868-0.525,7.627-1.213,11.143-2.266c6.977-2.212,13.258-5.051,18.279-9.421c5.051-4.282,9.242-9.651,12.557-16.05
						c3.209-6.428,5.775-13.704,7.326-21.472c0.803-3.875,1.489-7.844,1.906-11.853c0.195-2.004,0.419-4.014,0.544-6.001l0.27-5.42
						l0.082-1.658c0.466-9.365,8.437-16.582,17.803-16.116C1996.938,2282.434,2003.668,2289.05,2004.485,2297.275z"/>
				</g>
			</g>
			<g>
				<g>
					<g>
						
							<ellipse transform="matrix(0.059 -0.9983 0.9983 0.059 -496.2041 3827.0613)" style="fill:#000072;" cx="1781.917" cy="2176.736" rx="106.59" ry="81.166"/>
					</g>
				</g>
				<g>
					<g>
						
							<ellipse transform="matrix(0.059 -0.9983 0.9983 0.059 -458.0683 3830.6741)" style="fill:#FFFFFF;" cx="1802.903" cy="2158.314" rx="31.133" ry="23.707"/>
					</g>
				</g>
			</g>
			<g>
				<g>
					<g>
						
							<ellipse transform="matrix(0.9983 -0.059 0.059 0.9983 -124.585 135.8329)" style="fill:#000072;" cx="2236.917" cy="2176.736" rx="81.166" ry="106.59"/>
					</g>
				</g>
				<g>
					<g>
						
							<ellipse transform="matrix(0.9983 -0.059 0.059 0.9983 -123.5218 134.5477)" style="fill:#FFFFFF;" cx="2215.931" cy="2158.314" rx="23.707" ry="31.133"/>
					</g>
				</g>
			</g>
			<g>
				<g>
					<g>
						<path style="fill:#000072;" d="M1998.155,2324.459c57.559,1.719,98.373-59.434,79.401-77.603
							c-7.589-7.268-21.331-12.392-35.088-15.926c-27.091-6.958-55.506-7.806-82.964-2.478
							c-13.944,2.706-27.967,7.001-35.976,13.803C1903.504,2259.26,1940.596,2322.74,1998.155,2324.459z"/>
					</g>
				</g>
				<g style="opacity:0.3;">
					<g>
						<path style="fill:#FFFFFF;" d="M2003.505,2250.687c0.187,5.998-12.304,11.255-27.899,11.742
							c-15.595,0.487-28.389-3.982-28.577-9.98c-0.187-5.998,12.304-11.255,27.899-11.742
							C1990.524,2240.22,2003.318,2244.688,2003.505,2250.687z"/>
					</g>
				</g>
			</g>
		</g>
		<g>
			<g>
				<g>
					<path style="fill:#FFFFFF;" d="M1048.152,1604.014c32.511-42.683,51.848-95.943,51.848-153.739
						c0-140.282-113.721-254.003-254.002-254.003s-254.003,113.721-254.003,254.003s113.721,254.002,254.003,254.002
						c39.02,0,75.971-8.822,109.005-24.543l114.238,38.229L1048.152,1604.014z"/>
				</g>
			</g>
			<g style="opacity:0.5;">
				<g>
					<g>
						<path style="fill:#FFFFFF;" d="M845.998,1250.699c131.043,0,238.877,99.243,252.517,226.664
							c0.946-8.905,1.485-17.931,1.485-27.087c0-140.282-113.72-254.002-254.002-254.002
							c-140.282,0-254.003,113.721-254.003,254.002c0,9.196,0.516,18.27,1.469,27.213
							C607.047,1350.007,714.912,1250.699,845.998,1250.699z"/>
					</g>
				</g>
			</g>
			<g>
				<g>
					<path style="fill:#000072;" d="M1069.237,1735.069c-1.819,0-3.65-0.293-5.425-0.884l-107.815-36.079
						c-34.707,15.449-71.68,23.276-110,23.276c-149.487,0-271.106-121.621-271.106-271.108s121.619-271.104,271.106-271.104
						s271.106,121.616,271.106,271.104c0,57.256-17.534,111.694-50.781,157.934l19.736,106.646
						c1.101,5.952-1.028,12.046-5.601,16.021C1077.301,1733.619,1073.302,1735.069,1069.237,1735.069z M955.002,1662.633
						c1.829,0,3.662,0.293,5.427,0.884l86.711,29.019l-15.808-85.41c-0.876-4.741,0.288-9.634,3.213-13.472
						c31.631-41.533,48.35-91.108,48.35-143.379c0-130.625-106.272-236.895-236.897-236.895s-236.897,106.27-236.897,236.895
						s106.272,236.899,236.897,236.899c35.544,0,69.746-7.695,101.655-22.881C949.97,1663.189,952.482,1662.633,955.002,1662.633z"
						/>
				</g>
			</g>
			<g style="opacity:0.3;">
				<g>
					<path style="fill:#000072;" d="M1049.819,1601.734c-75.219,51.433-173.195,67.278-265.456,33.992
						c-102.318-36.915-171.474-124.816-189.338-224.714c-1.986,12.799-3.03,25.908-3.03,39.264
						c0,140.282,113.721,254.002,254.003,254.002c39.019,0,75.971-8.822,109.004-24.543l114.238,38.229l-21.088-113.95
						C1048.722,1603.265,1049.257,1602.489,1049.819,1601.734z"/>
				</g>
			</g>
			<g>
				<g>
					<path style="fill:#FF0068;" d="M937.745,1376.694L937.745,1376.694c-24.808-24.808-65.029-20.363-89.837,4.445l-3.861,3.861
						l-3.861-3.861c-24.808-24.808-65.029-29.253-89.837-4.445l0,0c-24.808,24.808-24.808,65.029,0,89.837l3.861,3.861
						l77.995,77.995c6.54,6.54,17.143,6.54,23.684,0l77.995-77.995l3.861-3.861C962.553,1441.723,962.553,1401.502,937.745,1376.694
						z"/>
				</g>
			</g>
		</g>
	</g>
</g>
</svg>
